<svg width="64" height="64" viewBox="0 0 64 64" xmlns="http://www.w3.org/2000/svg">
<defs><filter id="gl" x="-50%" y="-50%" width="200%" height="200%"><feGaussianBlur stdDeviation="2" result="b"/><feMerge><feMergeNode in="b"/><feMergeNode in="SourceGraphic"/></feMerge></filter></defs>
<g transform="translate(32,34)" filter="url(#gl)">
<path d="M 0,-26 L 20,-18 L 20,4 Q 20,18 0,26 Q -20,18 -20,4 L -20,-18 Z" fill="#38bdf8" opacity="0.08" stroke="#38bdf8" stroke-width="2"/>
<g transform="translate(0,2)">
<circle r="8" fill="none" stroke="#7dd3fc" stroke-width="2"/>
<circle r="3" fill="#7dd3fc"/>
<g stroke="#7dd3fc" stroke-width="2" stroke-linecap="round">
<line x1="0" y1="-12" x2="0" y2="-8"/><line x1="0" y1="8" x2="0" y2="12"/>
<line x1="-12" y1="0" x2="-8" y2="0"/><line x1="8" y1="0" x2="12" y2="0"/>
<line x1="-8" y1="-8" x2="-6" y2="-6"/><line x1="6" y1="6" x2="8" y2="8"/>
<line x1="-8" y1="8" x2="-6" y2="6"/><line x1="6" y1="-6" x2="8" y2="-8"/>
</g>
</g>
</g>
</svg>
