<svg width="64" height="64" viewBox="0 0 64 64" xmlns="http://www.w3.org/2000/svg">
<defs><filter id="gl" x="-50%" y="-50%" width="200%" height="200%"><feGaussianBlur stdDeviation="2" result="b"/><feMerge><feMergeNode in="b"/><feMergeNode in="SourceGraphic"/></feMerge></filter></defs>
<g transform="translate(32,36)" filter="url(#gl)">
<path d="M -16,4 Q -18,-6 -10,-12 Q -2,-16 6,-12 Q 16,-8 20,-2 Q 24,6 16,12 Q 6,16 -6,14 Q -14,12 -16,4 Z" fill="#ec4899" opacity="0.2" stroke="#f472b6" stroke-width="2" stroke-linejoin="round"/>
<path d="M -6,-4 Q 2,-8 10,-2 Q 6,4 -4,2 Z" fill="none" stroke="#f9a8d4" stroke-width="1.2" stroke-linejoin="round"/>
<path d="M 20,-2 L 28,0 L 20,4 Z" fill="#fb923c" opacity="0.4" stroke="#fb923c" stroke-width="1.2" stroke-linejoin="round"/>
<circle cx="8" cy="-6" r="1.5" fill="#fce7f3"/>
<g transform="translate(22,-20)">
<ellipse cx="0" cy="4" rx="3" ry="2" transform="rotate(-20)" fill="#7dd3fc"/>
<path d="M 2.5,2.5 L 2.5,-6 L 8,-8 L 8,-2" fill="none" stroke="#7dd3fc" stroke-width="1.5" stroke-linecap="round" stroke-linejoin="round"/>
<ellipse cx="6.5" cy="-1" rx="2.5" ry="1.5" transform="rotate(-20)" fill="#7dd3fc"/>
</g>
</g>
</svg>
