<svg width="64" height="64" viewBox="0 0 64 64" xmlns="http://www.w3.org/2000/svg">
<defs><filter id="gl" x="-50%" y="-50%" width="200%" height="200%"><feGaussianBlur stdDeviation="2.5" result="b"/><feMerge><feMergeNode in="b"/><feMergeNode in="SourceGraphic"/></feMerge></filter></defs>
<g transform="translate(32,36)">
<ellipse cx="0" cy="18" rx="20" ry="3" fill="none" stroke="#fcc419" stroke-width="0.6" opacity="0.25" filter="url(#gl)"/>
<g transform="rotate(-15)">
<rect x="-22" y="-12" width="44" height="24" rx="12" fill="#3b5bdb" stroke="#4c6ef5" stroke-width="1.2"/>
<rect x="-14" y="-8" width="7" height="7" rx="1" fill="#ffffff"/><rect x="-14" y="-8" width="3.5" height="3.5" fill="#111827"/>
<rect x="5" y="-8" width="7" height="7" rx="1" fill="#ffffff"/><rect x="5" y="-8" width="3.5" height="3.5" fill="#111827"/>
<path d="M -1,4 Q 3,8 7,4" fill="none" stroke="#111827" stroke-width="1.5" stroke-linecap="round"/>
</g>
<g transform="translate(-1,-22)" filter="url(#gl)">
<path d="M -11,4 L -9,-6 L -5,1 L 0,-9 L 5,1 L 9,-6 L 11,4 Z" fill="#f59f00" opacity="0.25" stroke="#fcc419" stroke-width="1.5" stroke-linejoin="round"/>
<line x1="-11" y1="4" x2="11" y2="4" stroke="#fcc419" stroke-width="1.2"/>
<circle cx="0" cy="-9" r="2" fill="#ffe066"/><circle cx="-9" cy="-6" r="1.5" fill="#ffe066"/><circle cx="9" cy="-6" r="1.5" fill="#ffe066"/>
</g>
</g>
</svg>
