<svg width="64" height="64" viewBox="0 0 64 64" xmlns="http://www.w3.org/2000/svg">
<defs><filter id="gl" x="-50%" y="-50%" width="200%" height="200%"><feGaussianBlur stdDeviation="2" result="b"/><feMerge><feMergeNode in="b"/><feMergeNode in="SourceGraphic"/></feMerge></filter></defs>
<g transform="translate(32,38)" filter="url(#gl)">
<path d="M 14,24 Q 6,16 8,8" fill="none" stroke="#22c55e" stroke-width="2.5" stroke-linecap="round" opacity="0.25"/>
<path d="M 18,26 Q 10,18 12,10" fill="none" stroke="#4ade80" stroke-width="2.5" stroke-linecap="round" opacity="0.5"/>
<g transform="rotate(45)">
<path d="M -5,-22 Q 0,-28 5,-22 L 5,12 L -5,12 Z" fill="#22c55e" opacity="0.2" stroke="#4ade80" stroke-width="2" stroke-linejoin="round"/>
<circle cx="0" cy="-10" r="3" fill="#bbf7d0" stroke="#4ade80" stroke-width="1.2"/>
<path d="M -5,6 L -11,14 L -5,12 Z" fill="#16a34a" stroke="#4ade80" stroke-width="1.2" stroke-linejoin="round"/>
<path d="M 5,6 L 11,14 L 5,12 Z" fill="#16a34a" stroke="#4ade80" stroke-width="1.2" stroke-linejoin="round"/>
<path d="M -3,12 Q 0,18 3,12 Q 1,16 0,22 Q -1,16 -3,12" fill="#fb923c" stroke="#fde047" stroke-width="1.2" stroke-linejoin="round"/>
</g>
</g>
</svg>
