<svg width="64" height="64" viewBox="0 0 64 64" xmlns="http://www.w3.org/2000/svg">
<defs><filter id="gl" x="-50%" y="-50%" width="200%" height="200%"><feGaussianBlur stdDeviation="2.5" result="b"/><feMerge><feMergeNode in="b"/><feMergeNode in="SourceGraphic"/></feMerge></filter></defs>
<g transform="translate(32,32)">
<path d="M -18,24 L -14,18 L 14,18 L 18,24 Z" fill="#1e3a8a" opacity="0.6" stroke="#4c6ef5" stroke-width="0.8"/>
<text x="0" y="23" text-anchor="middle" font-family="sans-serif" font-size="5" font-weight="700" fill="#748ffc" letter-spacing="0.5">TOP 10</text>
<ellipse cx="0" cy="27" rx="22" ry="3" fill="none" stroke="#4c6ef5" stroke-width="0.5" opacity="0.3"/>
<ellipse cx="0" cy="27" rx="16" ry="2" fill="none" stroke="#4c6ef5" stroke-width="0.7" opacity="0.5"/>
<g transform="rotate(-12)">
<rect x="-22" y="-12" width="44" height="24" rx="12" fill="#3b5bdb" stroke="#4c6ef5" stroke-width="1.2"/>
<rect x="-14" y="-7" width="7" height="5" rx="1" fill="#ffffff"/><rect x="-14" y="-7" width="3.5" height="3" fill="#111827"/>
<rect x="5" y="-7" width="7" height="5" rx="1" fill="#ffffff"/><rect x="5" y="-7" width="3.5" height="3" fill="#111827"/>
<path d="M 0,3 Q 4,7 8,4" fill="none" stroke="#111827" stroke-width="1.5" stroke-linecap="round"/>
</g>
<g transform="translate(-18,-14)" filter="url(#gl)">
<polygon points="0,-6 4,-1 0,5 -4,-1" fill="#4c6ef5" opacity="0.2" stroke="#748ffc" stroke-width="1.2"/>
<line x1="-4" y1="-1" x2="4" y2="-1" stroke="#748ffc" stroke-width="0.5"/>
</g>
<g filter="url(#gl)">
<g stroke="#ffe066" stroke-width="1" stroke-linecap="round">
<line x1="22" y1="-16" x2="24" y2="-18"/><line x1="22" y1="-18" x2="24" y2="-16"/>
</g>
<g stroke="#ffe066" stroke-width="1" stroke-linecap="round">
<line x1="-24" y1="-8" x2="-26" y2="-10"/><line x1="-24" y1="-10" x2="-26" y2="-8"/>
</g>
</g>
</g>
</svg>
