<svg width="375" height="1020" viewBox="0 0 375 1020" fill="none" xmlns="http://www.w3.org/2000/svg">
<path d="M718.539 498.498C717.584 498.499 716.629 498.501 715.673 498.501C714.714 498.501 713.755 498.499 712.797 498.498L357.529 498.498C301.268 521.251 239.608 533.807 174.954 533.807C110.554 533.807 49.1261 521.349 -6.95557 498.766H-297.723C-30.4758 502.161 179.755 537.796 179.755 581.255L179.745 581.79C179.431 589.675 172.197 597.297 158.961 604.513C172.496 617.66 179.755 631.567 179.755 645.956C179.755 656.494 175.861 666.774 168.46 676.687C175.861 691.818 179.755 707.511 179.755 723.599L179.745 725.054C179.571 736.958 177.263 748.642 172.983 760.04C177.438 776.484 179.755 793.36 179.755 810.561L179.745 812.578C179.611 825.274 178.216 837.789 175.63 850.082C178.353 866.78 179.755 883.796 179.755 901.066L179.745 903.67C179.642 916.261 178.791 928.714 177.229 941.006C178.899 957.04 179.755 973.301 179.755 989.75L179.745 992.927C177.938 1262.77 -53.8747 1481 -339.57 1481L-342.929 1480.99C-628.199 1479.28 -858.896 1260 -858.896 989.75L-858.885 986.573C-858.782 971.207 -857.931 956.008 -856.369 941.007C-858.038 927.868 -858.896 914.545 -858.896 901.066L-858.885 898.463C-858.751 882.085 -857.355 865.939 -854.769 850.081C-857.491 837.138 -858.896 823.948 -858.896 810.561L-858.885 808.542C-858.711 792.039 -856.403 775.84 -852.123 760.039C-856.577 748.178 -858.896 736.006 -858.896 723.599L-858.885 722.143C-858.658 706.564 -854.777 691.361 -847.599 676.686C-855 666.773 -858.896 656.495 -858.896 645.956L-858.885 645.003C-858.572 630.953 -851.337 617.37 -838.101 604.513C-851.636 597.134 -858.896 589.33 -858.896 581.255L-858.885 580.72C-858.183 563.041 -822.691 546.678 -762.771 533.28L-758.869 526.952L-752.276 531.017C-665.32 512.906 -532.477 500.685 -381.418 498.766H-858.896V498.502L-341.955 498.502C-341.16 498.501 -340.365 498.5 -339.57 498.5C-338.45 498.5 -337.331 498.502 -336.213 498.503H-7.60889C-18.9857 493.902 -30.1417 488.885 -41.0571 483.47C-125.506 492.939 -228.463 498.5 -339.57 498.5C-626.385 498.5 -858.895 461.449 -858.895 415.745L-858.884 415.21C-858.571 407.325 -851.337 399.702 -838.101 392.486C-851.635 379.339 -858.895 365.433 -858.895 351.044C-858.895 340.505 -855 330.225 -847.599 320.313C-855 305.181 -858.895 289.489 -858.895 273.401L-858.884 271.946C-858.71 260.042 -856.402 248.357 -852.122 236.959C-856.576 220.515 -858.895 203.64 -858.895 186.439L-858.884 184.422C-858.75 171.726 -857.355 159.209 -854.769 146.916C-857.491 130.219 -858.895 113.203 -858.895 95.9336L-858.884 93.3301C-858.781 80.7387 -857.929 68.285 -856.368 55.9932C-858.037 39.9592 -858.895 23.6992 -858.895 7.25L-858.884 4.07324C-857.078 -265.774 -625.265 -484 -339.57 -484L-336.21 -483.99C-210.231 -483.235 -94.8943 -440.049 -5.36963 -368.779C50.2831 -390.96 111.161 -403.182 174.954 -403.182C245.411 -403.182 312.311 -388.273 372.544 -361.504C464.045 -437.749 584.149 -483.999 715.673 -483.999L719.033 -483.989C1004.3 -482.28 1235 -262.999 1235 7.25098L1234.99 10.4277C1234.89 25.7929 1234.03 40.9905 1232.47 55.9902C1234.14 69.1297 1235 82.4548 1235 95.9346L1234.99 98.5381C1234.85 114.917 1233.46 131.063 1230.87 146.922C1233.6 159.864 1235 173.054 1235 186.44L1234.99 188.459C1234.81 204.961 1232.51 221.159 1228.23 236.959C1232.68 248.821 1235 260.994 1235 273.402L1234.99 274.858C1234.76 290.437 1230.88 305.64 1223.7 320.314C1231.1 330.227 1235 340.506 1235 351.045L1234.99 351.998C1234.68 366.048 1227.44 379.631 1214.21 392.487C1227.74 399.866 1235 407.671 1235 415.746L1234.99 416.281C1234.29 433.96 1198.79 450.322 1138.88 463.72L1134.97 470.049L1128.38 465.982C1041.42 484.094 908.576 496.315 757.511 498.234H1235V498.498H718.539ZM-386.764 499.102C-511.331 500.89 -623.21 509.686 -706.748 522.998C-723.078 525.6 -738.324 528.376 -752.369 531.304L-756.318 537.708L-762.971 533.605L-762.962 533.591C-784.701 538.46 -803.209 543.72 -817.992 549.289C-831.12 554.235 -841.295 559.421 -848.183 564.784C-855.075 570.152 -858.632 575.662 -858.632 581.255C-858.632 586.848 -855.075 592.357 -848.183 597.725C-845.318 599.956 -841.882 602.155 -837.903 604.32C-778.885 547.282 -601.705 504.599 -386.764 499.102ZM-800.163 619.516C-815.603 614.806 -828.283 609.832 -837.859 604.645C-851.397 617.776 -858.632 631.64 -858.632 645.956C-858.632 656.387 -854.791 666.579 -847.469 676.423C-837.584 656.33 -821.514 637.23 -800.163 619.516ZM-824.582 698.776C-834.099 691.736 -841.768 684.435 -847.422 676.922C-854.77 691.985 -858.632 707.599 -858.632 723.599C-858.632 735.851 -856.365 747.876 -852.004 759.603C-846.248 738.542 -836.983 718.193 -824.582 698.776ZM-837.844 787.243C-843.762 778.525 -848.496 769.588 -851.963 760.465C-856.35 776.776 -858.632 793.509 -858.632 810.561C-858.632 823.698 -857.276 836.646 -854.649 849.357C-851.131 828.089 -845.472 807.339 -837.844 787.243ZM-845.925 880.168C-849.576 870.539 -852.485 860.742 -854.616 850.797C-857.265 867.266 -858.632 884.043 -858.632 901.066C-858.632 914.15 -857.824 927.088 -856.249 939.853C-854.085 919.568 -850.617 899.648 -845.925 880.168ZM179.492 989.75C179.492 973.693 178.676 957.817 177.083 942.155C150.531 1145.19 -70.649 1303.63 -339.57 1303.63L-342.929 1303.62C-610.332 1302.31 -829.782 1144.34 -856.223 942.153C-857.816 957.816 -858.632 973.693 -858.632 989.75C-858.632 1260.9 -626.254 1480.74 -339.57 1480.74C-54.0055 1480.74 177.675 1262.61 179.481 992.925L179.492 989.75ZM-5.65381 -368.666C-95.91 -440.475 -212.396 -483.736 -339.57 -483.736C-626.254 -483.736 -858.631 -263.901 -858.631 7.25C-858.631 23.3063 -857.815 39.1824 -856.222 54.8438C-829.669 -148.186 -608.49 -306.633 -339.57 -306.633L-336.21 -306.624C-270.416 -306.301 -207.524 -296.494 -149.696 -278.877C-107.897 -316.685 -59.1973 -347.286 -5.65381 -368.666ZM-845.924 116.83C-850.616 97.3495 -854.085 77.4289 -856.249 57.1436C-857.825 69.9092 -858.631 82.8486 -858.631 95.9336C-858.631 112.957 -857.264 129.733 -854.615 146.201C-852.484 136.257 -849.575 126.459 -845.924 116.83ZM-837.843 209.756C-845.471 189.66 -851.131 168.912 -854.649 147.644C-857.276 160.355 -858.631 173.303 -858.631 186.439C-858.631 203.491 -856.35 220.223 -851.963 236.534C-848.496 227.411 -843.761 218.474 -837.843 209.756ZM-824.581 298.223C-836.982 278.806 -846.247 258.456 -852.003 237.396C-856.364 249.122 -858.631 261.148 -858.631 273.401C-858.631 289.401 -854.769 305.014 -847.421 320.077C-841.767 312.565 -834.098 305.263 -824.581 298.223ZM-800.163 377.482C-821.514 359.768 -837.584 340.669 -847.469 320.576C-854.791 330.42 -858.631 340.613 -858.631 351.044C-858.631 365.36 -851.396 379.223 -837.858 392.354C-828.282 387.167 -815.603 382.192 -800.163 377.482ZM-386.76 497.897C-601.703 492.4 -778.884 449.717 -837.902 392.679C-841.881 394.844 -845.316 397.044 -848.182 399.275C-855.075 404.643 -858.631 410.152 -858.631 415.745C-858.631 421.338 -855.075 426.848 -848.182 432.216C-841.294 437.579 -831.119 442.765 -817.991 447.711C-791.736 457.602 -753.729 466.515 -706.747 474.002C-623.208 487.314 -511.328 496.109 -386.76 497.897ZM176.963 941.006C174.824 920.476 171.349 900.317 166.62 880.608C113.711 1019.23 -92.8349 1122.62 -339.57 1122.62C-586.305 1122.62 -792.85 1019.22 -845.758 880.607C-850.488 900.315 -853.964 920.472 -856.103 941.001C-830.238 1144.39 -608.91 1303.37 -339.57 1303.37C-70.2319 1303.37 151.096 1144.39 176.963 941.006ZM-149.921 -278.672C-208.664 -296.551 -272.634 -306.369 -339.57 -306.369C-608.907 -306.369 -830.234 -147.395 -856.102 55.9932C-853.963 76.5234 -850.488 96.682 -845.758 116.391C-792.849 -22.226 -586.304 -125.62 -339.57 -125.62C-313.785 -125.62 -288.438 -124.491 -263.661 -122.311C-237.012 -181.937 -198.049 -235.084 -149.921 -278.672ZM-821.868 189.768C-831.744 166.437 -839.781 142.223 -845.814 117.286C-849.477 127.001 -852.387 136.886 -854.5 146.921C-851.004 168.347 -845.33 189.247 -837.661 209.486C-833.086 202.778 -827.809 196.199 -821.868 189.768ZM-821.868 807.23C-827.809 800.799 -833.087 794.221 -837.662 787.513C-845.331 807.751 -851.003 828.651 -854.5 850.075C-852.387 860.11 -849.479 869.997 -845.816 879.712C-839.783 854.775 -831.744 830.561 -821.868 807.23ZM-799.772 282.65C-815.32 259.671 -828.088 235.384 -837.729 210.057C-843.662 218.82 -848.394 227.804 -851.845 236.972C-846.105 258.125 -836.82 278.565 -824.368 298.065C-817.189 292.773 -808.967 287.628 -799.772 282.65ZM-799.774 714.348C-808.968 709.37 -817.191 704.226 -824.369 698.934C-836.821 718.434 -846.105 738.874 -851.845 760.027C-848.394 769.195 -843.663 778.178 -837.73 786.941C-828.089 761.615 -815.322 737.327 -799.774 714.348ZM-762.374 367.682C-787.645 346.433 -808.591 323.2 -824.438 298.445C-833.981 305.507 -841.652 312.821 -847.292 320.341C-840.412 334.362 -830.513 347.906 -817.895 360.836C-812.392 366.476 -806.371 371.997 -799.861 377.392C-788.746 374.012 -776.208 370.766 -762.374 367.682ZM-762.375 629.316C-776.209 626.232 -788.746 622.988 -799.861 619.608C-806.371 625.003 -812.393 630.524 -817.896 636.164C-830.513 649.094 -840.412 662.637 -847.292 676.657C-841.653 684.177 -833.982 691.491 -824.439 698.553C-808.592 673.799 -787.646 650.565 -762.375 629.316ZM166.509 880.152C160.479 855.135 152.43 830.845 142.531 807.443C65.8166 890.237 -121.126 948.697 -339.57 948.697L-342.929 948.692C-559.929 948.097 -745.349 889.812 -821.67 807.443C-831.57 830.845 -839.619 855.134 -845.649 880.151C-823.585 938.277 -774.477 990.239 -706.654 1030.99C-612.722 1087.44 -482.938 1122.36 -339.57 1122.36C-196.202 1122.36 -66.4187 1087.44 27.5132 1030.99C95.3364 990.239 144.446 938.278 166.509 880.152ZM-263.773 -122.057C-288.514 -124.231 -313.823 -125.357 -339.57 -125.357C-482.938 -125.357 -612.721 -90.4373 -706.653 -33.9941C-774.476 6.76028 -823.584 58.7218 -845.648 116.847C-839.618 141.864 -831.569 166.154 -821.669 189.556C-744.955 106.763 -558.013 48.3028 -339.57 48.3027L-336.21 48.3076C-325.15 48.338 -314.172 48.5181 -303.287 48.8438C-301.148 -11.7525 -287.257 -69.4249 -263.773 -122.057ZM-382.906 497.727C-564.435 491.226 -719.482 444.258 -799.919 377.685C-806.444 379.671 -812.477 381.703 -817.991 383.78C-825.547 386.627 -832.124 389.553 -837.66 392.547C-832.112 397.9 -825.518 403.133 -817.937 408.222C-791.69 425.841 -753.693 441.719 -706.716 455.058C-622.328 479.019 -509.011 494.768 -382.906 497.727ZM-382.883 499.271C-508.998 502.229 -622.324 517.98 -706.717 541.942C-753.694 555.281 -791.691 571.159 -817.938 588.778C-825.518 593.867 -832.112 599.099 -837.66 604.452C-832.124 607.446 -825.548 610.373 -817.992 613.22C-812.478 615.297 -806.445 617.328 -799.92 619.314C-719.48 552.739 -564.422 505.769 -382.883 499.271ZM-777.319 725.326C-785.247 721.808 -792.663 718.189 -799.539 714.476C-815.118 737.498 -827.903 761.833 -837.547 787.211C-832.977 793.931 -827.701 800.521 -821.754 806.965C-809.608 778.32 -794.692 751.008 -777.319 725.326ZM-777.319 271.673C-794.692 245.991 -809.608 218.68 -821.754 190.035C-827.7 196.479 -832.976 203.069 -837.546 209.788C-827.902 235.166 -815.117 259.501 -799.538 282.523C-792.663 278.81 -785.247 275.191 -777.319 271.673ZM-730.195 635.785C-741.452 633.739 -752.085 631.604 -762.049 629.388C-787.379 650.662 -808.362 673.925 -824.226 698.711C-822.212 700.196 -820.116 701.672 -817.938 703.135C-812.357 706.881 -806.243 710.547 -799.626 714.129C-780.475 685.866 -757.115 659.585 -730.195 635.785ZM-730.198 361.214C-757.118 337.414 -780.474 311.131 -799.625 282.869C-806.242 286.451 -812.355 290.118 -817.937 293.865C-820.115 295.327 -822.211 296.803 -824.225 298.288C-808.361 323.073 -787.38 346.336 -762.051 367.609C-752.088 365.393 -741.454 363.26 -730.198 361.214ZM142.419 807.178C138.974 799.045 135.304 791.021 131.418 783.11L124.288 780.821L126.61 773.591C117.991 756.99 108.41 740.916 97.936 725.436C27.8344 756.482 -82.1341 779.573 -211.455 788.89L-216.349 794.56L-222.068 789.621C-259.825 792.101 -299.158 793.413 -339.57 793.413L-346.283 793.4C-527.235 792.75 -685.884 765.819 -777.074 725.435C-794.471 751.147 -809.405 778.494 -821.559 807.178C-820.365 808.469 -819.144 809.754 -817.896 811.033C-791.648 837.931 -753.654 862.167 -706.684 882.525C-612.745 923.243 -482.95 948.434 -339.57 948.434C-196.19 948.434 -66.3956 923.243 27.5435 882.525C74.5132 862.167 112.507 837.931 138.755 811.033C140.004 809.754 141.225 808.469 142.419 807.178ZM-282.111 204.481C-296.063 160.514 -303.58 113.773 -303.58 65.3125C-303.58 59.8885 -303.483 54.4859 -303.296 49.1064C-315.28 48.748 -327.376 48.5664 -339.57 48.5664C-482.95 48.5664 -612.744 73.7574 -706.683 114.475C-753.653 134.833 -791.647 159.069 -817.895 185.967C-819.143 187.246 -820.364 188.531 -821.558 189.821C-809.404 218.505 -794.471 245.852 -777.075 271.563C-684.759 230.68 -523.307 203.587 -339.57 203.587L-332.857 203.6C-332.816 203.6 -332.774 203.599 -332.733 203.6L-327.625 198.805L-323.064 203.663C-309.271 203.785 -295.613 204.059 -282.111 204.481ZM-380.267 497.555C-537.626 490.225 -675.315 440.751 -762.119 367.896C-775.957 370.977 -788.499 374.216 -799.618 377.592C-775.112 397.847 -743.683 416.292 -706.683 432.329C-621.717 469.157 -507.42 493.282 -380.267 497.555ZM-380.267 499.445C-507.42 503.718 -621.718 527.843 -706.684 564.671C-743.683 580.708 -775.112 599.152 -799.618 619.407C-788.499 622.783 -775.958 626.021 -762.121 629.103C-675.317 556.247 -537.626 506.775 -380.267 499.445ZM-704.405 640.146C-713.207 638.761 -721.7 637.327 -729.866 635.846C-756.828 659.662 -780.219 685.967 -799.391 714.257C-792.516 717.969 -785.099 721.588 -777.169 725.105C-756.278 694.259 -731.842 665.768 -704.405 640.146ZM-704.407 356.854C-731.844 331.231 -756.28 302.74 -777.17 271.895C-785.1 275.412 -792.516 279.03 -799.39 282.742C-780.218 311.032 -756.828 337.337 -729.866 361.153C-721.7 359.672 -713.208 358.238 -704.407 356.854ZM-216.139 335.343C-244.621 295.877 -267.029 251.912 -282.027 204.748C-295.475 204.327 -309.077 204.052 -322.815 203.929L-322.275 204.505L-327.975 209.854L-333.324 204.154L-333.012 203.861C-335.195 203.854 -337.381 203.851 -339.57 203.851C-482.96 203.851 -612.766 220.353 -706.716 247.029C-733.12 254.526 -756.687 262.825 -776.925 271.785C-756.013 302.656 -731.547 331.167 -704.075 356.802C-610.318 342.079 -481.602 332.991 -339.57 332.991C-297.038 332.991 -255.701 333.806 -216.139 335.343ZM97.7866 725.214C76.8745 694.343 52.4086 665.832 24.936 640.197C-68.8212 654.92 -197.537 664.009 -339.57 664.009C-426.703 664.009 -508.824 660.588 -580.937 654.545L-586.159 659.27L-591.235 653.658C-632.65 649.995 -670.591 645.455 -704.075 640.197C-731.547 665.832 -756.013 694.343 -776.925 725.214C-756.687 734.174 -733.121 742.474 -706.717 749.971C-612.767 776.647 -482.96 793.149 -339.57 793.149C-299.202 793.149 -259.911 791.841 -222.193 789.366L-217.158 783.535L-211.276 788.612C-119.431 781.985 -37.3618 768.409 27.5767 749.971C53.9808 742.474 77.5482 734.174 97.7866 725.214ZM-379.515 499.673C-506.957 505.5 -621.528 538.974 -706.654 590.126C-726.75 602.202 -745.202 615.263 -761.795 629.175C-751.832 631.388 -741.199 633.52 -729.944 635.563C-643.639 559.374 -520.807 508.66 -382.654 499.865L-379.515 499.673ZM-379.563 497.323C-518.975 489.093 -642.997 438.193 -729.945 361.436C-741.2 363.479 -751.832 365.611 -761.794 367.824C-745.201 381.737 -726.749 394.798 -706.653 406.874C-621.538 458.019 -506.986 491.49 -379.563 497.323ZM-379.938 497.036C-505.947 487.872 -619.361 436.169 -704.161 357.082C-705.026 357.218 -705.888 357.352 -706.747 357.489C-714.625 358.745 -722.252 360.042 -729.613 361.376C-642.807 437.941 -519.065 488.742 -379.938 497.036ZM-379.961 499.965C-519.079 508.263 -642.812 559.063 -729.613 635.624C-722.252 636.958 -714.626 638.255 -706.748 639.511C-705.888 639.648 -705.026 639.781 -704.161 639.917C-619.366 560.835 -505.96 509.134 -379.961 499.965ZM24.6899 639.97C-68.8276 552.822 -197.127 498.978 -338.73 498.766H-340.408C-482.011 498.977 -610.311 552.822 -703.83 639.97C-670.429 645.209 -632.596 649.734 -591.308 653.388L-585.607 648.229L-580.363 654.025L-580.67 654.304C-508.625 660.333 -426.599 663.746 -339.57 663.746C-197.65 663.746 -69.0326 654.671 24.6899 639.97ZM-104.959 445.337C-147.839 415.012 -185.38 377.901 -215.944 335.613C-255.564 334.071 -296.968 333.254 -339.57 333.254C-481.489 333.254 -610.106 342.328 -703.829 357.029C-610.126 444.349 -481.505 498.236 -339.57 498.236C-255.14 498.236 -175.421 479.167 -104.959 445.337ZM82.6567 629.175C66.0629 615.262 47.6097 602.202 27.5132 590.126C-57.6125 538.974 -172.182 505.5 -299.624 499.673C-160.192 507.895 -36.1514 558.797 50.8062 635.563C62.0613 633.52 72.6938 631.388 82.6567 629.175ZM-85.5112 458.393C-89.0262 456.156 -92.5081 453.873 -95.9585 451.549C-157.515 476.941 -226.445 493.01 -299.613 497.325C-222.27 493.788 -149.668 480.067 -85.5112 458.393ZM50.4741 635.623C-36.3317 559.058 -160.074 508.257 -299.201 499.963C-173.192 509.127 -59.7773 560.83 25.022 639.917C25.8865 639.781 26.7484 639.648 27.6069 639.511C35.4863 638.255 43.1128 636.957 50.4741 635.623ZM-96.2202 451.373C-99.0738 449.448 -101.906 447.495 -104.714 445.512C-163.901 473.948 -229.62 491.972 -299.177 497.034C-226.265 492.685 -157.579 476.662 -96.2202 451.373ZM-72.6919 466.271C-76.9127 463.766 -81.0911 461.201 -85.2251 458.574C-149.255 480.229 -221.698 493.959 -298.872 497.554C-216.611 494.789 -139.731 483.717 -72.6919 466.271ZM120.479 619.407C95.9729 599.152 64.5432 580.708 27.5435 564.671C-57.4155 527.846 -171.702 503.722 -298.842 499.446C-141.496 506.781 -3.81802 556.252 82.98 629.104C96.8184 626.022 109.36 622.783 120.479 619.407ZM-57.9253 474.682C-62.7946 472.021 -67.6109 469.279 -72.3735 466.458C-138.785 483.763 -214.858 494.814 -296.255 497.728C-208.884 495.679 -127.652 487.488 -57.9253 474.682ZM158.521 604.452C152.974 599.099 146.378 593.867 138.797 588.778C122.259 577.676 101.054 567.265 75.8774 557.745L68.7573 560.934L65.6558 554.006C53.7423 549.789 41.0275 545.762 27.5767 541.942C-56.8112 517.981 -170.128 502.231 -296.233 499.272C-114.704 505.773 40.3439 552.741 120.781 619.314C127.305 617.328 133.338 615.297 138.851 613.22C146.408 610.373 152.985 607.446 158.521 604.452ZM179.492 581.255C179.492 575.662 175.935 570.152 169.042 564.784C162.155 559.421 151.98 554.235 138.851 549.289C112.596 539.398 74.5897 530.485 27.6069 522.998C-55.9314 509.686 -167.811 500.89 -292.378 499.102C-147.766 502.8 -20.2452 523.33 65.6958 553.74L72.6968 550.605L75.7456 557.414C112.632 571.341 141.031 587.183 158.763 604.32C162.742 602.155 166.177 599.956 169.042 597.725C175.935 592.357 179.492 586.848 179.492 581.255ZM-41.4927 483.253C-46.9079 480.56 -52.264 477.769 -57.5581 474.882C-126.341 487.536 -206.332 495.697 -292.375 497.897C-199.54 496.565 -113.754 491.339 -41.4927 483.253ZM120.25 714.258C101.078 685.968 77.6892 659.662 50.7271 635.846C42.5615 637.327 34.0692 638.761 25.2681 640.146C52.705 665.768 77.141 694.259 98.0317 725.104C105.96 721.588 113.377 717.969 120.25 714.258ZM145.086 698.711C129.223 673.926 108.241 650.663 82.9126 629.39C72.9491 631.606 62.3153 633.739 51.0591 635.785C77.9788 659.585 101.335 685.868 120.486 714.13C127.103 710.548 133.216 706.881 138.797 703.135C140.976 701.672 143.072 700.196 145.086 698.711ZM168.153 676.658C161.273 662.637 151.373 649.094 138.755 636.164C133.252 630.524 127.232 625.003 120.721 619.608C109.606 622.988 97.0691 626.233 83.2349 629.317C108.507 650.566 129.452 673.8 145.299 698.555C154.842 691.493 162.514 684.178 168.153 676.658ZM158.408 787.211C148.763 761.833 135.978 737.498 120.399 714.476C113.524 718.189 106.108 721.808 98.1802 725.326C108.641 740.789 118.21 756.844 126.821 773.424L134.12 775.769L131.743 783.173C135.58 790.994 139.207 798.926 142.616 806.964C148.562 800.52 153.838 793.93 158.408 787.211ZM172.706 760.028C166.965 738.875 157.682 718.434 145.229 698.934C138.051 704.226 129.828 709.371 120.633 714.349C136.181 737.328 148.949 761.615 158.59 786.942C164.523 778.179 169.255 769.196 172.706 760.028ZM179.492 645.956C179.492 631.64 172.257 617.776 158.719 604.645C149.144 609.832 136.465 614.807 121.024 619.517C142.375 637.231 158.445 656.331 168.331 676.423C175.652 666.58 179.492 656.387 179.492 645.956ZM175.362 850.078C171.865 828.652 166.191 807.752 158.522 787.513C153.947 794.221 148.671 800.8 142.729 807.231C152.605 830.562 160.643 854.776 166.675 879.713C170.338 869.998 173.248 860.113 175.362 850.078ZM179.492 723.599C179.492 707.599 175.63 691.985 168.283 676.922C162.628 684.435 154.958 691.735 145.441 698.776C157.843 718.193 167.108 738.543 172.865 759.604C177.225 747.877 179.492 735.851 179.492 723.599ZM179.492 810.561C179.492 793.509 177.21 776.777 172.824 760.466C169.356 769.588 164.622 778.525 158.705 787.243C166.332 807.339 171.992 828.087 175.51 849.355C178.137 836.644 179.492 823.697 179.492 810.561ZM179.492 901.066C179.492 884.043 178.125 867.266 175.476 850.798C173.346 860.742 170.436 870.54 166.786 880.169C171.478 899.649 174.947 919.57 177.11 939.855C178.686 927.09 179.492 914.151 179.492 901.066ZM1234.99 992.928C1233.18 1262.78 1001.37 1481 715.672 1481L712.313 1480.99C427.043 1479.28 196.346 1260 196.346 989.75L196.357 986.573C196.46 971.208 197.312 956.01 198.874 941.01C197.204 927.871 196.346 914.546 196.346 901.066L196.357 898.463C196.491 882.084 197.887 865.937 200.473 850.078C197.751 837.136 196.346 823.947 196.346 810.561L196.357 808.542C196.531 792.039 198.839 775.841 203.12 760.041C198.665 748.179 196.346 736.006 196.346 723.599L196.357 722.143C196.585 706.564 200.465 691.362 207.643 676.687C200.242 666.774 196.346 656.495 196.346 645.956L196.357 645.003C196.67 630.953 203.905 617.369 217.141 604.513C203.606 597.134 196.346 589.33 196.346 581.255L196.357 580.72C198.164 535.262 429.977 498.501 715.672 498.501C1002.49 498.501 1235 535.552 1235 581.256L1234.99 581.791C1234.67 589.676 1227.44 597.298 1214.2 604.513C1227.74 617.66 1235 631.568 1235 645.957C1235 656.495 1231.1 666.775 1223.7 676.688C1231.1 691.819 1235 707.512 1235 723.6L1234.99 725.055C1234.81 736.959 1232.51 748.643 1228.23 760.04C1232.68 776.485 1235 793.36 1235 810.562L1234.99 812.579C1234.85 825.276 1233.46 837.792 1230.87 850.086C1233.59 866.783 1235 883.798 1235 901.067L1234.99 903.671C1234.88 916.263 1234.03 928.717 1232.47 941.01C1234.14 957.043 1235 973.303 1235 989.751L1234.99 992.928ZM668.542 499.101C543.95 500.887 432.047 509.684 348.495 522.998C301.512 530.485 263.505 539.398 237.25 549.289C224.122 554.235 213.947 559.421 207.059 564.784C200.167 570.151 196.61 575.662 196.61 581.255C196.61 586.848 200.167 592.357 207.059 597.725C209.925 599.956 213.36 602.156 217.339 604.321C276.362 547.277 453.572 504.591 668.542 499.101ZM255.08 619.517C239.639 614.807 226.959 609.832 217.383 604.645C203.845 617.776 196.61 631.64 196.61 645.956C196.61 656.387 200.451 666.58 207.773 676.424C217.659 656.331 233.728 637.231 255.08 619.517ZM230.66 698.777C221.143 691.737 213.475 684.435 207.82 676.922C200.472 691.985 196.61 707.599 196.61 723.599C196.61 735.851 198.877 747.877 203.238 759.604C208.994 738.544 218.258 718.194 230.66 698.777ZM217.398 787.243C211.48 778.525 206.746 769.588 203.279 760.466C198.892 776.777 196.61 793.509 196.61 810.561C196.61 823.697 197.966 836.644 200.593 849.355C204.112 828.087 209.77 807.339 217.398 787.243ZM209.317 880.169C205.666 870.54 202.757 860.743 200.626 850.798C197.977 867.266 196.61 884.043 196.61 901.066C196.61 914.15 197.418 927.089 198.994 939.854C201.157 919.569 204.625 899.649 209.317 880.169ZM1234.73 989.751C1234.73 973.694 1233.92 957.817 1232.33 942.155C1205.77 1145.19 984.593 1303.63 715.672 1303.63L712.313 1303.62C444.912 1302.31 225.462 1144.34 199.019 942.157C197.426 957.818 196.61 973.694 196.61 989.75C196.61 1260.9 428.988 1480.74 715.672 1480.74C1002.36 1480.74 1234.73 1260.9 1234.73 989.751ZM1232.21 941.004C1230.07 920.475 1226.59 900.318 1221.86 880.61C1168.95 1019.23 962.407 1122.62 715.672 1122.62C468.937 1122.62 262.393 1019.23 209.484 880.608C204.754 900.316 201.278 920.474 199.139 941.004C225.006 1144.39 446.333 1303.37 715.672 1303.37C985.011 1303.37 1206.34 1144.39 1232.21 941.004ZM233.374 807.231C227.432 800.8 222.156 794.221 217.581 787.513C209.911 807.751 204.239 828.651 200.742 850.076C202.855 860.111 205.763 869.997 209.426 879.712C215.459 854.775 223.498 830.562 233.374 807.231ZM255.468 714.349C246.274 709.371 238.052 704.227 230.874 698.935C218.421 718.435 209.137 738.874 203.397 760.027C206.848 769.195 211.579 778.179 217.512 786.942C227.153 761.616 239.92 737.328 255.468 714.349ZM292.869 629.317C279.034 626.233 266.496 622.989 255.38 619.609C248.87 625.004 242.849 630.525 237.346 636.164C224.729 649.094 214.83 662.637 207.95 676.658C213.589 684.178 221.26 691.492 230.802 698.554C246.65 673.799 267.596 650.566 292.869 629.317ZM1221.75 880.152C1215.72 855.136 1207.67 830.845 1197.77 807.444C1121.06 890.238 934.117 948.698 715.672 948.698L712.313 948.693C495.313 948.098 309.893 889.812 233.572 807.443C223.672 830.845 215.623 855.135 209.593 880.152C231.657 938.278 280.765 990.239 348.588 1030.99C442.52 1087.44 572.304 1122.36 715.672 1122.36C859.04 1122.36 988.823 1087.44 1082.76 1031C1150.58 990.24 1199.69 938.278 1221.75 880.152ZM672.303 499.274C546.211 502.235 432.906 517.983 348.525 541.942C301.548 555.281 263.551 571.159 237.304 588.778C229.724 593.867 223.129 599.099 217.582 604.452C223.117 607.446 229.694 610.373 237.25 613.22C242.764 615.297 248.797 617.329 255.322 619.315C335.754 552.746 490.789 505.779 672.303 499.274ZM277.923 725.327C269.995 721.809 262.58 718.189 255.705 714.476C240.125 737.498 227.339 761.833 217.695 787.211C222.265 793.931 227.541 800.521 233.487 806.966C237.209 798.188 241.191 789.535 245.424 781.017L243.022 773.867L250.335 771.41C258.672 755.543 267.887 740.163 277.923 725.327ZM325.047 635.786C313.79 633.74 303.156 631.605 293.192 629.389C267.863 650.663 246.879 673.926 231.015 698.712C233.029 700.197 235.126 701.672 237.304 703.135C242.885 706.881 248.999 710.547 255.616 714.129C274.767 685.866 298.127 659.586 325.047 635.786ZM1197.66 807.179C1185.51 778.495 1170.57 751.148 1153.18 725.437C1060.86 766.32 899.41 793.414 715.672 793.414L708.959 793.401C708.913 793.401 708.867 793.401 708.821 793.4L703.712 798.195L699.153 793.336C522.284 791.767 367.708 765.089 278.168 725.436C268.107 740.306 258.868 755.722 250.516 771.628L252.92 778.787L245.607 781.244C241.379 789.758 237.401 798.406 233.683 807.179C234.878 808.469 236.098 809.754 237.346 811.033C263.594 837.931 301.588 862.167 348.558 882.525C442.497 923.243 572.292 948.435 715.672 948.435C859.053 948.435 988.847 923.244 1082.79 882.526C1129.76 862.168 1167.75 837.932 1194 811.034C1195.25 809.755 1196.47 808.47 1197.66 807.179ZM674.964 499.446C547.816 503.72 433.521 527.844 348.558 564.671C311.558 580.708 280.13 599.153 255.624 619.408C266.742 622.784 279.284 626.022 293.122 629.104C298.067 624.953 303.178 620.877 308.448 616.882L308.431 616.88L309.723 609.171L317.203 610.424C404.313 547.868 531.459 506.132 674.964 499.446ZM350.837 640.146C342.036 638.762 333.543 637.327 325.376 635.846C298.414 659.662 275.024 685.968 255.852 714.258C262.727 717.97 270.143 721.589 278.073 725.106C298.964 694.26 323.4 665.769 350.837 640.146ZM1153.03 725.215C1132.12 694.344 1107.65 665.833 1080.18 640.198C986.42 654.921 857.705 664.01 715.672 664.01C632.882 664.01 554.616 660.922 485.162 655.431L479.678 660.392L474.434 654.596L474.473 654.561C428.971 650.751 387.451 645.896 351.167 640.198C323.694 665.833 299.229 694.344 278.317 725.215C298.555 734.175 322.122 742.474 348.525 749.971C438.799 775.603 562.178 791.84 698.904 793.071L698.363 792.496L704.062 787.146L709.412 792.846L709.101 793.138C711.288 793.145 713.479 793.15 715.672 793.15C859.063 793.15 988.869 776.648 1082.82 749.972C1109.22 742.475 1132.79 734.175 1153.03 725.215ZM675.727 499.674C548.285 505.501 433.714 538.974 348.588 590.126C337.702 596.668 327.298 603.499 317.41 610.598L316.14 618.172L308.805 616.942C303.524 620.942 298.402 625.02 293.446 629.175C303.409 631.388 314.042 633.521 325.298 635.564C411.603 559.375 534.435 508.661 672.588 499.866L675.727 499.674ZM675.354 499.96C536.206 508.244 412.445 559.05 325.628 635.624C332.989 636.958 340.616 638.255 348.495 639.511C349.354 639.648 350.216 639.782 351.082 639.918C435.892 560.821 549.326 509.114 675.354 499.96ZM1079.93 639.971C986.231 552.651 857.608 498.765 715.672 498.765C573.737 498.765 445.114 552.65 351.412 639.97C387.706 645.663 429.234 650.513 474.741 654.318L480.23 649.351L485.474 655.147L485.43 655.188C554.815 660.666 632.986 663.747 715.672 663.747C857.593 663.747 986.21 654.672 1079.93 639.971ZM673.794 498.234C569.445 496.907 473.789 490.665 395.949 480.961C383.663 487.235 371.065 493.002 358.182 498.234H673.794ZM1234.74 7.25098C1234.74 -263.9 1002.36 -483.735 715.673 -483.735C584.257 -483.735 464.255 -437.54 372.814 -361.384C422.46 -339.283 467.569 -309.122 506.399 -272.608C570.419 -294.485 641.216 -306.632 715.673 -306.632L719.033 -306.623C986.433 -305.31 1205.88 -147.34 1232.33 54.8428C1233.92 39.182 1234.74 23.3065 1234.74 7.25098ZM668.475 497.898C574.197 495.487 487.184 485.92 414.22 471.127C408.346 474.453 402.394 477.661 396.366 480.747C472.798 490.257 566.374 496.433 668.475 497.898ZM672.303 497.727C583.448 494.542 500.938 481.661 430.418 461.532C425.203 464.762 419.918 467.894 414.569 470.93C488.439 485.884 576.695 495.482 672.303 497.727ZM674.964 497.555C590.888 493.637 512.427 477.689 444.342 452.571C439.855 455.569 435.314 458.495 430.719 461.345C501.866 481.63 585.213 494.538 674.964 497.555ZM675.681 497.324C596.057 492.624 521.454 474.003 455.911 444.597C452.185 447.246 448.419 449.845 444.614 452.391C512.819 477.529 591.437 493.468 675.681 497.324ZM675.305 497.037C599.601 491.531 528.442 470.671 465.303 437.743C462.283 440.003 459.235 442.23 456.159 444.421C521.528 473.728 595.911 492.304 675.305 497.037ZM1079.94 357.03C1046.53 351.791 1008.7 347.266 967.412 343.612L961.709 348.771L956.465 342.976L956.774 342.696C884.729 336.667 802.702 333.255 715.673 333.255C663.273 333.255 612.685 334.493 564.999 336.793C537.163 375.055 503.601 409.047 465.537 437.569C539.473 476.106 624.407 498.087 714.758 498.234H716.589C858.162 498.003 986.434 444.163 1079.94 357.03ZM1232.21 55.998C1206.34 -147.393 985.013 -306.368 715.673 -306.368C641.29 -306.368 570.57 -294.242 506.616 -272.405C552.307 -229.386 589.289 -177.565 614.713 -119.727C647.371 -123.593 681.128 -125.619 715.673 -125.619C962.408 -125.619 1168.95 -22.2247 1221.86 116.393C1226.59 96.6849 1230.07 76.5273 1232.21 55.998ZM1153.03 271.785C1132.79 262.825 1109.22 254.527 1082.82 247.03C988.871 220.354 859.064 203.852 715.673 203.852C687.05 203.852 658.968 204.511 631.605 205.775C616.459 253.019 593.876 297.039 565.198 336.52C612.827 334.226 663.347 332.992 715.673 332.992C802.807 332.992 884.928 336.411 957.042 342.454L962.261 337.731L967.338 343.342C1008.75 347.005 1046.7 351.544 1080.18 356.802C1107.65 331.167 1132.12 302.656 1153.03 271.785ZM1221.75 116.848C1199.69 58.7226 1150.58 6.7614 1082.76 -33.9932C988.825 -90.4365 859.042 -125.356 715.673 -125.356C681.166 -125.356 647.446 -123.333 614.824 -119.474C637.752 -67.2294 651.254 -10.083 653.233 49.9141C673.704 48.8508 694.541 48.3037 715.673 48.3037L719.033 48.3086C936.033 48.9044 1121.45 107.188 1197.77 189.557C1207.67 166.155 1215.72 141.865 1221.75 116.848ZM1197.66 189.822C1196.47 188.531 1195.25 187.247 1194 185.968C1167.75 159.07 1129.76 134.834 1082.79 114.476C988.848 73.7582 859.054 48.5674 715.673 48.5674C694.544 48.5674 673.71 49.1136 653.242 50.1768C653.405 55.2024 653.487 60.2482 653.487 65.3125C653.487 114.15 645.852 161.241 631.691 205.507C659.028 204.245 687.081 203.588 715.673 203.588L722.386 203.601C903.339 204.251 1061.99 231.179 1153.18 271.564C1170.58 245.853 1185.51 218.506 1197.66 189.822ZM1137.9 629.175C1121.3 615.263 1102.85 602.203 1082.76 590.127C997.63 538.975 883.06 505.501 755.619 499.674C895.05 507.896 1019.09 558.797 1106.05 635.563C1117.3 633.52 1127.94 631.388 1137.9 629.175ZM1137.9 367.825C1127.94 365.612 1117.3 363.48 1106.05 361.437C1019.09 438.201 895.057 489.103 755.63 497.326C883.068 491.498 997.634 458.025 1082.76 406.875C1102.85 394.799 1121.31 381.738 1137.9 367.825ZM1105.72 361.376C1098.36 360.042 1090.73 358.746 1082.85 357.49C1081.99 357.353 1081.13 357.218 1080.27 357.082C995.454 436.179 882.021 487.886 755.993 497.04C895.14 488.755 1018.9 437.951 1105.72 361.376ZM1105.72 635.624C1018.91 559.059 895.169 508.257 756.042 499.963C882.05 509.127 995.464 560.831 1080.26 639.918C1081.13 639.782 1081.99 639.649 1082.85 639.512C1090.73 638.256 1098.35 636.958 1105.72 635.624ZM1175.72 377.592C1164.6 374.216 1152.06 370.978 1138.23 367.896C1051.42 440.753 913.731 490.225 756.372 497.555C883.524 493.282 997.822 469.158 1082.79 432.33C1119.79 416.293 1151.22 397.847 1175.72 377.592ZM1175.72 619.408C1151.22 599.153 1119.79 580.709 1082.79 564.672C997.835 527.851 883.563 503.728 756.438 499.448C913.768 506.789 1051.43 556.259 1138.22 629.104C1152.06 626.022 1164.6 622.784 1175.72 619.408ZM1213.76 392.548C1208.23 389.554 1201.65 386.628 1194.1 383.781C1188.58 381.704 1182.55 379.671 1176.03 377.685C1095.59 444.257 940.547 491.224 759.023 497.727C885.123 494.767 998.436 479.019 1082.82 455.059C1129.8 441.72 1167.79 425.842 1194.04 408.223C1201.62 403.134 1208.22 397.901 1213.76 392.548ZM1213.76 604.452C1208.22 599.099 1201.62 593.868 1194.04 588.779C1167.79 571.16 1129.8 555.282 1082.82 541.943C998.434 517.983 885.123 502.234 759.023 499.274C940.545 505.777 1095.59 552.744 1176.02 619.315C1182.55 617.329 1188.58 615.298 1194.09 613.221C1201.65 610.374 1208.23 607.446 1213.76 604.452ZM1234.74 415.746C1234.74 410.153 1231.18 404.644 1224.29 399.276C1221.42 397.045 1217.99 394.844 1214.01 392.679C1154.99 449.723 977.776 492.408 762.804 497.899C887.396 496.113 999.299 487.317 1082.85 474.003C1099.18 471.401 1114.43 468.624 1128.47 465.696L1132.42 459.293L1139.07 463.396L1139.07 463.408C1160.8 458.539 1179.31 453.281 1194.1 447.712C1207.22 442.766 1217.4 437.58 1224.29 432.217C1231.18 426.849 1234.74 421.339 1234.74 415.746ZM1234.73 581.256C1234.73 575.663 1231.18 570.153 1224.28 564.785C1217.4 559.422 1207.22 554.236 1194.09 549.29C1167.84 539.399 1129.83 530.486 1082.85 522.999C999.298 509.685 887.396 500.887 762.804 499.101C977.774 504.592 1154.98 547.277 1214.01 604.321C1217.98 602.156 1221.42 599.957 1224.28 597.726C1231.18 592.358 1234.73 586.849 1234.73 581.256ZM1175.49 714.258C1156.32 685.968 1132.93 659.663 1105.97 635.847C1097.8 637.328 1089.31 638.762 1080.51 640.146C1107.95 665.769 1132.38 694.26 1153.27 725.105C1161.2 721.588 1168.62 717.97 1175.49 714.258ZM1175.49 282.743C1168.62 279.031 1161.2 275.411 1153.27 271.894C1132.38 302.74 1107.95 331.231 1080.51 356.854C1089.31 358.238 1097.8 359.673 1105.97 361.154C1132.93 337.338 1156.32 311.033 1175.49 282.743ZM1200.33 298.288C1198.32 296.803 1196.22 295.329 1194.04 293.866C1188.46 290.12 1182.35 286.452 1175.73 282.871C1156.58 311.134 1133.22 337.414 1106.3 361.215C1117.56 363.261 1128.19 365.396 1138.15 367.612C1163.48 346.338 1184.47 323.074 1200.33 298.288ZM1200.33 698.712C1184.47 673.927 1163.48 650.663 1138.15 629.39C1128.19 631.606 1117.56 633.74 1106.3 635.786C1133.22 659.586 1156.58 685.868 1175.73 714.13C1182.35 710.548 1188.46 706.882 1194.04 703.136C1196.22 701.673 1198.32 700.198 1200.33 698.712ZM1223.39 676.659C1216.51 662.638 1206.62 649.095 1194 636.165C1188.49 630.525 1182.47 625.003 1175.96 619.608C1164.85 622.988 1152.31 626.233 1138.48 629.317C1163.75 650.567 1184.69 673.801 1200.54 698.556C1210.08 691.494 1217.76 684.179 1223.39 676.659ZM1223.4 320.343C1217.76 312.823 1210.09 305.508 1200.54 298.446C1184.7 323.201 1163.75 346.434 1138.48 367.684C1152.31 370.768 1164.85 374.011 1175.97 377.391C1182.48 371.997 1188.5 366.476 1194 360.837C1206.62 347.907 1216.52 334.364 1223.4 320.343ZM1213.65 787.212C1204.01 761.834 1191.22 737.499 1175.64 714.477C1168.77 718.19 1161.35 721.809 1153.42 725.327C1170.8 751.009 1185.71 778.32 1197.86 806.965C1203.8 800.521 1209.08 793.931 1213.65 787.212ZM1213.65 209.789C1209.08 203.069 1203.81 196.479 1197.86 190.035C1185.71 218.68 1170.8 245.991 1153.42 271.673C1161.35 275.191 1168.77 278.811 1175.64 282.524C1191.22 259.502 1204.01 235.167 1213.65 209.789ZM1227.95 760.028C1222.21 738.875 1212.92 718.434 1200.47 698.934C1193.29 704.226 1185.07 709.372 1175.88 714.35C1191.42 737.329 1204.19 761.616 1213.83 786.942C1219.77 778.179 1224.5 769.196 1227.95 760.028ZM1227.95 236.973C1224.5 227.805 1219.77 218.822 1213.83 210.059C1204.19 235.385 1191.43 259.672 1175.88 282.651C1185.07 287.629 1193.29 292.774 1200.47 298.066C1212.93 278.566 1222.21 258.126 1227.95 236.973ZM1234.73 645.957C1234.73 631.641 1227.5 617.776 1213.96 604.645C1204.39 609.832 1191.71 614.807 1176.27 619.517C1197.62 637.231 1213.69 656.331 1223.57 676.424C1230.89 666.581 1234.73 656.388 1234.73 645.957ZM1234.74 351.045C1234.74 340.614 1230.9 330.421 1223.57 320.577C1213.69 340.67 1197.62 359.769 1176.27 377.483C1191.71 382.193 1204.39 387.168 1213.96 392.355C1227.5 379.225 1234.74 365.36 1234.74 351.045ZM1230.6 850.076C1227.11 828.652 1221.43 807.752 1213.76 787.514C1209.19 794.222 1203.91 800.801 1197.97 807.232C1207.85 830.563 1215.88 854.777 1221.92 879.715C1225.58 869.999 1228.49 860.112 1230.6 850.076ZM1230.6 146.924C1228.49 136.889 1225.58 127.003 1221.92 117.288C1215.89 142.225 1207.85 166.438 1197.97 189.769C1203.91 196.2 1209.19 202.778 1213.77 209.487C1221.44 189.249 1227.11 168.349 1230.6 146.924ZM1234.73 723.6C1234.73 707.6 1230.87 691.986 1223.52 676.923C1217.87 684.436 1210.2 691.736 1200.68 698.776C1213.08 718.193 1222.35 738.543 1228.11 759.604C1232.47 747.878 1234.73 735.852 1234.73 723.6ZM1234.74 273.402C1234.74 261.15 1232.47 249.123 1228.11 237.396C1222.35 258.456 1213.09 278.806 1200.69 298.223C1210.2 305.263 1217.87 312.566 1223.53 320.078C1230.87 305.015 1234.74 289.401 1234.74 273.402ZM1234.73 810.562C1234.73 793.51 1232.45 776.777 1228.07 760.466C1224.6 769.589 1219.86 778.526 1213.95 787.244C1221.57 807.34 1227.23 828.088 1230.75 849.356C1233.38 836.645 1234.73 823.698 1234.73 810.562ZM1234.74 186.44C1234.74 173.304 1233.38 160.356 1230.75 147.645C1227.24 168.913 1221.58 189.661 1213.95 209.757C1219.87 218.475 1224.6 227.412 1228.07 236.534C1232.45 220.224 1234.74 203.491 1234.74 186.44ZM1234.73 901.067C1234.73 884.044 1233.37 867.266 1230.72 850.798C1228.59 860.743 1225.68 870.542 1222.03 880.171C1226.72 899.651 1230.19 919.571 1232.35 939.856C1233.93 927.091 1234.73 914.152 1234.73 901.067ZM1234.74 95.9346C1234.74 82.8506 1233.93 69.9121 1232.35 57.1475C1230.19 77.4321 1226.72 97.3522 1222.03 116.832C1225.68 126.46 1228.59 136.258 1230.72 146.202C1233.37 129.734 1234.74 112.958 1234.74 95.9346Z" fill="url(#paint0_linear_295_6809)"/>
<ellipse cx="174.955" cy="65.3123" rx="478.533" ry="468.494" fill="url(#paint1_radial_295_6809)"/>
<ellipse cx="174.955" cy="65.3123" rx="478.533" ry="468.494" fill="url(#paint2_linear_295_6809)"/>
<defs>
<linearGradient id="paint0_linear_295_6809" x1="165.887" y1="-403.182" x2="174.577" y2="533.81" gradientUnits="userSpaceOnUse">
<stop offset="0.793199" stop-opacity="0"/>
<stop offset="0.989441" stop-color="#3B4CFF" stop-opacity="0.5"/>
<stop offset="1" stop-color="#3B4CFF"/>
</linearGradient>
<radialGradient id="paint1_radial_295_6809" cx="0" cy="0" r="1" gradientTransform="matrix(9.06577 468.494 -478.533 8.87557 174.955 65.3123)" gradientUnits="userSpaceOnUse">
<stop offset="0.907102" stop-opacity="0"/>
<stop offset="1" stop-color="#3B90FF" stop-opacity="0.8"/>
</radialGradient>
<linearGradient id="paint2_linear_295_6809" x1="165.889" y1="-403.182" x2="174.579" y2="533.81" gradientUnits="userSpaceOnUse">
<stop offset="0.793199" stop-opacity="0"/>
<stop offset="0.989441" stop-color="#3B4CFF" stop-opacity="0.5"/>
<stop offset="1" stop-color="#3B4CFF"/>
</linearGradient>
</defs>
</svg>
